<svg xmlns="http://www.w3.org/2000/svg" xmlns:xlink="http://www.w3.org/1999/xlink" contentStyleType="text/css" data-diagram-type="STATE" height="1052px" preserveAspectRatio="none" style="width:2172px;height:1052px;background:#FFFFFF;" version="1.1" viewBox="0 0 2172 1052" width="2172px" zoomAndPan="magnify"><title>Diagramme d'&#233;tat corrig&#233; du Cycle de Vie d'une Activity</title><defs/><g><g class="title" data-source-line="1"><text fill="#000000" font-family="sans-serif" font-size="28" font-weight="bold" lengthAdjust="spacing" textLength="804.9043" x="670.0051" y="47.0703">Diagramme d'&#233;tat corrig&#233; du Cycle de Vie d'une Activity</text></g><g id="Created"><rect fill="#F1F1F1" height="100" rx="25" ry="25" style="stroke:#181818;stroke-width:1;" width="117.6289" x="1806.7" y="656.9766"/><line style="stroke:#181818;stroke-width:1;" x1="1806.7" x2="1924.3289" y1="709.9531" y2="709.9531"/><text fill="#000000" font-family="sans-serif" font-size="28" lengthAdjust="spacing" textLength="77.6289" x="1826.7" y="694.0469">Cr&#233;&#233;e</text></g><g id="Started"><rect fill="#F1F1F1" height="100" rx="25" ry="25" style="stroke:#181818;stroke-width:1;" width="172.2891" x="1493.36" y="940.9766"/><line style="stroke:#181818;stroke-width:1;" x1="1493.36" x2="1665.6491" y1="993.9531" y2="993.9531"/><text fill="#000000" font-family="sans-serif" font-size="28" lengthAdjust="spacing" textLength="132.2891" x="1513.36" y="978.0469">D&#233;marr&#233;e</text></g><g id="Resumed"><rect fill="#F1F1F1" height="100" rx="25" ry="25" style="stroke:#181818;stroke-width:1;" width="249.7402" x="390.64" y="88.9766"/><line style="stroke:#181818;stroke-width:1;" x1="390.64" x2="640.3802" y1="141.9531" y2="141.9531"/><text fill="#000000" font-family="sans-serif" font-size="28" lengthAdjust="spacing" textLength="209.7402" x="410.64" y="126.0469">Reprise (Active)</text></g><g id="Paused"><rect fill="#F1F1F1" height="100" rx="25" ry="25" style="stroke:#181818;stroke-width:1;" width="159.6016" x="523.7" y="372.9766"/><line style="stroke:#181818;stroke-width:1;" x1="523.7" x2="683.3016" y1="425.9531" y2="425.9531"/><text fill="#000000" font-family="sans-serif" font-size="28" lengthAdjust="spacing" textLength="119.6016" x="543.7" y="410.0469">En Pause</text></g><g id="Stopped"><rect fill="#F1F1F1" height="100" rx="25" ry="25" style="stroke:#181818;stroke-width:1;" width="139.5039" x="895.76" y="656.9766"/><line style="stroke:#181818;stroke-width:1;" x1="895.76" x2="1035.2639" y1="709.9531" y2="709.9531"/><text fill="#000000" font-family="sans-serif" font-size="28" lengthAdjust="spacing" textLength="99.5039" x="915.76" y="694.0469">Arr&#234;t&#233;e</text></g><ellipse cx="1921.5" cy="422.9766" fill="#222222" rx="20" ry="20" style="stroke:#222222;stroke-width:2;"/><ellipse cx="455.5" cy="990.9766" fill="none" rx="22" ry="22" style="stroke:#222222;stroke-width:2;"/><ellipse cx="455.5" cy="990.9766" fill="#222222" rx="12" ry="12" style="stroke:#222222;stroke-width:2;"/><g class="entity" data-entity="GMN2" data-source-line="30" data-uid="ent0003" id="entity_GMN2"><path d="M710.72,98.3566 L710.72,130.9766 L640.66,138.9766 L710.72,146.9766 L710.72,179.5988 A0,0 0 0 0 710.72,179.5988 L1116.2757,179.5988 A0,0 0 0 0 1116.2757,179.5988 L1116.2757,118.3566 L1096.2757,98.3566 L710.72,98.3566 A0,0 0 0 0 710.72,98.3566" fill="#FEFFDD" style="stroke:#181818;stroke-width:1;"/><path d="M1096.2757,98.3566 L1096.2757,118.3566 L1116.2757,118.3566 L1096.2757,98.3566" fill="#FEFFDD" style="stroke:#181818;stroke-width:1;"/><text fill="#000000" font-family="sans-serif" font-size="26" lengthAdjust="spacing" textLength="363.5557" x="722.72" y="133.4933">L'activit&#233; est au premier plan</text><text fill="#000000" font-family="sans-serif" font-size="26" lengthAdjust="spacing" textLength="172.0215" x="722.72" y="164.1144">et interactive.</text></g><g class="entity" data-entity="GMN5" data-source-line="35" data-uid="ent0006" id="entity_GMN5"><path d="M753.98,382.3566 L753.98,414.9766 L683.6,422.9766 L753.98,430.9766 L753.98,463.5988 A0,0 0 0 0 753.98,463.5988 L1257.0484,463.5988 A0,0 0 0 0 1257.0484,463.5988 L1257.0484,402.3566 L1237.0484,382.3566 L753.98,382.3566 A0,0 0 0 0 753.98,382.3566" fill="#FEFFDD" style="stroke:#181818;stroke-width:1;"/><path d="M1237.0484,382.3566 L1237.0484,402.3566 L1257.0484,402.3566 L1237.0484,382.3566" fill="#FEFFDD" style="stroke:#181818;stroke-width:1;"/><text fill="#000000" font-family="sans-serif" font-size="26" lengthAdjust="spacing" textLength="419.3896" x="765.98" y="417.4933">L'activit&#233; est partiellement visible</text><text fill="#000000" font-family="sans-serif" font-size="26" lengthAdjust="spacing" textLength="461.0684" x="765.98" y="448.1144">mais n'a plus le focus (ex: dialogue).</text></g><g class="entity" data-entity="GMN8" data-source-line="40" data-uid="ent0009" id="entity_GMN8"><path d="M1104.74,666.3566 L1104.74,698.9766 L1035.74,706.9766 L1104.74,714.9766 L1104.74,747.5988 A0,0 0 0 0 1104.74,747.5988 L1474.2664,747.5988 A0,0 0 0 0 1474.2664,747.5988 L1474.2664,686.3566 L1454.2664,666.3566 L1104.74,666.3566 A0,0 0 0 0 1104.74,666.3566" fill="#FEFFDD" style="stroke:#181818;stroke-width:1;"/><path d="M1454.2664,666.3566 L1454.2664,686.3566 L1474.2664,686.3566 L1454.2664,666.3566" fill="#FEFFDD" style="stroke:#181818;stroke-width:1;"/><text fill="#000000" font-family="sans-serif" font-size="26" lengthAdjust="spacing" textLength="327.5264" x="1116.74" y="701.4933">L'activit&#233; n'est plus visible</text><text fill="#000000" font-family="sans-serif" font-size="26" lengthAdjust="spacing" textLength="113.2168" x="1116.74" y="732.1144">&#224; l'&#233;cran.</text></g><!--link *start* to Created--><g class="link" data-entity-1=".start." data-entity-2="Created" data-source-line="11" data-uid="lnk3" id="link_.start._Created"><path d="M1917.84,443.3566 C1909.3,486.0566 1890.212,581.3893 1877.592,644.5293" fill="none" id="*start*-to-Created" style="stroke:#181818;stroke-width:2;"/><polygon fill="#181818" points="1875.24,656.2966,1886.6128,640.2137,1877.2,646.4905,1870.9231,637.0777,1875.24,656.2966" style="stroke:#181818;stroke-width:2;"/><text fill="#000000" font-family="sans-serif" font-size="26" lengthAdjust="spacing" textLength="244.6387" x="1906.3979" y="560.1133">Lancement de l'app</text><text fill="#000000" font-family="sans-serif" font-size="26" lengthAdjust="spacing" textLength="100.1279" x="1900.52" y="590.7344">(appel &#224;</text><text fill="#000000" font-family="sans-serif" font-size="26" font-weight="bold" lengthAdjust="spacing" textLength="139.585" x="2008.8745" y="590.7344">onCreate()</text><text fill="#000000" font-family="sans-serif" font-size="26" lengthAdjust="spacing" textLength="8.4551" x="2148.4595" y="590.7344">)</text></g><!--link Created to Started--><g class="link" data-entity-1="Created" data-entity-2="Started" data-source-line="13" data-uid="lnk4" id="link_Created_Started"><path d="M1815.68,757.7566 C1763.2,809.1366 1689.615,881.182 1637.335,932.362" fill="none" id="Created-to-Started" style="stroke:#181818;stroke-width:2;"/><polygon fill="#181818" points="1628.76,940.7566,1647.2189,933.8814,1635.9058,933.7611,1636.0261,922.448,1628.76,940.7566" style="stroke:#181818;stroke-width:2;"/><text fill="#000000" font-family="sans-serif" font-size="26" lengthAdjust="spacing" textLength="91.6729" x="1750.12" y="859.1133">appel &#224;</text><text fill="#000000" font-family="sans-serif" font-size="26" font-weight="bold" lengthAdjust="spacing" textLength="115.9844" x="1850.0194" y="859.1133">onStart()</text></g><!--link Started to Resumed--><g class="link" data-entity-1="Started" data-entity-2="Resumed" data-source-line="14" data-uid="lnk5" id="link_Started_Resumed"><path d="M1576.02,940.1366 C1569.78,873.4566 1552.96,751.4366 1509.5,656.9766 C1443,512.4166 1406.3,483.1766 1291.5,372.9766 C1222.48,306.7166 1204.56,283.9966 1115.5,248.9766 C931.84,176.7566 868.4,230.7966 675.5,188.9766 C664.18,186.5166 664.0621,186.7213 652.4021,183.6413" fill="none" id="Started-to-Resumed" style="stroke:#181818;stroke-width:2;"/><polygon fill="#181818" points="640.8,180.5766,656.16,192.9083,650.4684,183.1305,660.2462,177.4389,640.8,180.5766" style="stroke:#181818;stroke-width:2;"/><text fill="#000000" font-family="sans-serif" font-size="26" lengthAdjust="spacing" textLength="91.6729" x="1481.16" y="575.1133">appel &#224;</text><text fill="#000000" font-family="sans-serif" font-size="26" font-weight="bold" lengthAdjust="spacing" textLength="158.3486" x="1581.0594" y="575.1133">onResume()</text></g><!--link Resumed to Paused--><g class="link" data-entity-1="Resumed" data-entity-2="Paused" data-source-line="16" data-uid="lnk6" id="link_Resumed_Paused"><path d="M390.24,176.5766 C309.76,206.0366 227.8,252.7966 271.5,312.9766 C328.68,391.6966 432.6926,413.2732 511.2726,419.0732" fill="none" id="Resumed-to-Paused" style="stroke:#181818;stroke-width:2;"/><polygon fill="#181818" points="523.24,419.9566,505.8777,410.6533,513.2671,419.2205,504.7,426.6099,523.24,419.9566" style="stroke:#181818;stroke-width:2;"/><text fill="#000000" font-family="sans-serif" font-size="26" lengthAdjust="spacing" textLength="393.2246" x="273.5" y="276.1133">Une autre activit&#233; passe devant</text><text fill="#000000" font-family="sans-serif" font-size="26" lengthAdjust="spacing" textLength="100.1279" x="346.1108" y="306.7344">(appel &#224;</text><text fill="#000000" font-family="sans-serif" font-size="26" font-weight="bold" lengthAdjust="spacing" textLength="131.1934" x="454.4653" y="306.7344">onPause()</text><text fill="#000000" font-family="sans-serif" font-size="26" lengthAdjust="spacing" textLength="8.4551" x="585.6587" y="306.7344">)</text></g><!--link Paused to Resumed--><g class="link" data-entity-1="Paused" data-entity-2="Resumed" data-source-line="17" data-uid="lnk7" id="link_Paused_Resumed"><path d="M647.02,372.4366 C672.92,337.3566 696.92,289.2766 675.5,248.9766 C662.76,224.9966 651.9174,212.2687 629.5574,196.6487" fill="none" id="Paused-to-Resumed" style="stroke:#181818;stroke-width:2;"/><polygon fill="#181818" points="619.72,189.7766,629.8947,206.643,627.9178,195.5033,639.0575,193.5264,619.72,189.7766" style="stroke:#181818;stroke-width:2;"/><text fill="#000000" font-family="sans-serif" font-size="26" lengthAdjust="spacing" textLength="412.5342" x="685.76" y="276.1133">L'activit&#233; revient au premier plan</text><text fill="#000000" font-family="sans-serif" font-size="26" lengthAdjust="spacing" textLength="100.1279" x="754.448" y="306.7344">(appel &#224;</text><text fill="#000000" font-family="sans-serif" font-size="26" font-weight="bold" lengthAdjust="spacing" textLength="158.3486" x="862.8025" y="306.7344">onResume()</text><text fill="#000000" font-family="sans-serif" font-size="26" lengthAdjust="spacing" textLength="8.4551" x="1021.1511" y="306.7344">)</text></g><!--link Paused to Stopped--><g class="link" data-entity-1="Paused" data-entity-2="Stopped" data-source-line="18" data-uid="lnk8" id="link_Paused_Stopped"><path d="M666.56,473.7566 C732.8,524.9766 826.8888,597.7537 893.0688,648.9537" fill="none" id="Paused-to-Stopped" style="stroke:#181818;stroke-width:2;"/><polygon fill="#181818" points="902.56,656.2966,893.2184,638.9548,894.6507,650.1775,883.428,651.6098,902.56,656.2966" style="stroke:#181818;stroke-width:2;"/><text fill="#000000" font-family="sans-serif" font-size="26" lengthAdjust="spacing" textLength="327.5264" x="818.94" y="560.1133">L'activit&#233; n'est plus visible</text><text fill="#000000" font-family="sans-serif" font-size="26" lengthAdjust="spacing" textLength="100.1279" x="868.2105" y="590.7344">(appel &#224;</text><text fill="#000000" font-family="sans-serif" font-size="26" font-weight="bold" lengthAdjust="spacing" textLength="112.1758" x="976.565" y="590.7344">onStop()</text><text fill="#000000" font-family="sans-serif" font-size="26" lengthAdjust="spacing" textLength="8.4551" x="1088.7408" y="590.7344">)</text></g><!--link Stopped to Started--><g class="link" data-entity-1="Stopped" data-entity-2="Started" data-source-line="21" data-uid="lnk9" id="link_Stopped_Started"><path d="M997.36,757.1966 C1025.8,796.4566 1071.04,850.2166 1123.5,880.9766 C1239.66,949.0566 1384.2757,973.1014 1480.4357,982.4014" fill="none" id="Stopped-to-Started" style="stroke:#181818;stroke-width:2;"/><polygon fill="#181818" points="1492.38,983.5566,1475.2337,973.861,1482.4264,982.5939,1473.6935,989.7866,1492.38,983.5566" style="stroke:#181818;stroke-width:2;"/><text fill="#000000" font-family="sans-serif" font-size="26" lengthAdjust="spacing" textLength="401.54" x="1125.5" y="844.1133">L'utilisateur revient sur l'activit&#233;</text><text fill="#000000" font-family="sans-serif" font-size="26" lengthAdjust="spacing" textLength="100.1279" x="1193.3628" y="874.7344">(appel &#224;</text><text fill="#000000" font-family="sans-serif" font-size="26" font-weight="bold" lengthAdjust="spacing" textLength="149.0049" x="1301.7173" y="874.7344">onRestart()</text><text fill="#000000" font-family="sans-serif" font-size="26" lengthAdjust="spacing" textLength="8.4551" x="1450.7222" y="874.7344">)</text></g><!--link Paused to *end*--><g class="link" data-entity-1="Paused" data-entity-2=".end." data-source-line="24" data-uid="lnk11" id="link_Paused_.end."><path d="M573.88,473.6966 C547.62,519.3366 510.6,590.3366 491.5,656.9766 C458.78,771.2366 455.3936,903.3966 455.3336,956.2966" fill="none" id="Paused-to-*end*" style="stroke:#181818;stroke-width:2;"/><polygon fill="#181818" points="455.32,968.2966,463.3404,950.3056,455.3313,958.2966,447.3404,950.2875,455.32,968.2966" style="stroke:#181818;stroke-width:2;"/><text fill="#000000" font-family="sans-serif" font-size="26" lengthAdjust="spacing" textLength="366.7549" x="493.5" y="717.1133">L'app est tu&#233;e par le syst&#232;me</text></g><!--link Stopped to *end*--><g class="link" data-entity-1="Stopped" data-entity-2=".end." data-source-line="25" data-uid="lnk12" id="link_Stopped_.end."><path d="M895.36,736.2166 C877.8,743.0166 858.96,750.2766 841.5,756.9766 C771.38,783.8766 749.26,780.6566 683.5,816.9766 C596.7,864.9166 515.2775,934.9068 479.9175,966.7468" fill="none" id="Stopped-to-*end*" style="stroke:#181818;stroke-width:2;"/><polygon fill="#181818" points="471,974.7766,489.7295,968.6769,478.4313,968.0851,479.0231,956.7868,471,974.7766" style="stroke:#181818;stroke-width:2;"/><text fill="#000000" font-family="sans-serif" font-size="26" lengthAdjust="spacing" textLength="262.9072" x="691.2637" y="844.1133">L'activit&#233; est d&#233;truite</text><text fill="#000000" font-family="sans-serif" font-size="26" lengthAdjust="spacing" textLength="100.1279" x="685.5" y="874.7344">(appel &#224;</text><text fill="#000000" font-family="sans-serif" font-size="26" font-weight="bold" lengthAdjust="spacing" textLength="157.625" x="793.8545" y="874.7344">onDestroy()</text><text fill="#000000" font-family="sans-serif" font-size="26" lengthAdjust="spacing" textLength="8.4551" x="951.4795" y="874.7344">)</text></g><!--link Resumed to *end*--><g class="link" data-entity-1="Resumed" data-entity-2=".end." data-source-line="26" data-uid="lnk13" id="link_Resumed_.end."><path d="M389.8,171.8966 C340.26,188.6566 285.32,213.4366 243.5,248.9766 C131.44,344.2766 112.7,391.1766 73.5,532.9766 C12,755.4566 338.2893,931.7458 424.8493,974.2658" fill="none" id="Resumed-to-*end*" style="stroke:#181818;stroke-width:2;"/><polygon fill="#181818" points="435.62,979.5566,422.9912,964.4399,426.6444,975.1476,415.9368,978.8009,435.62,979.5566" style="stroke:#181818;stroke-width:2;"/><text fill="#000000" font-family="sans-serif" font-size="26" lengthAdjust="spacing" textLength="421.9541" x="75.5" y="575.1133">L'activit&#233; est d&#233;truite (ex: finish())</text></g><!--SRC=[XLJBRjim4BphAnQvo3QGVa0E1GAdDwCeqiUbxO6LrWu1YXB8fM7_JOzrVqC_rY4bMhQS8XU186TdPtTd9LeCqvDMEwUQXgak-vCeeQfrJk_w4zM1riSAc9hfcuw0O9aUAz5xBSUYAEcfFssrrQ9R2v2dHE0BZo_JtThrf_x4TwGyhHtZhivF26oKS_drioXtyVhCdTEUQP5oyJ9Xdjc7Pi9yiFH91J_4fzFvwH74VsNYRhiEZv3xnIdhareVYwjoSNlDnVVLJxg_Vv-5qWDjbAsuOIiHOahLTJ_i0bysrF-crQgr0tQnNAsMHP438ybO3qYkyEawmeiCYE2ni3buk4xe8aCYVAWLwAyOXWhYy1r6Wf5roljOqbvPcQjDWOFOaUCw-wQSU1oZ9wXS1UeSDveTTKRPEUMayOfpRFcCqvRi1JJ1e-5U_p8yfujnOpTBMiE6N8tM8gD8pjEB5uwb3GwdBkXfo3dpzH0sPH1jjCTy499hypYRITyhjULnBUVcWIlGu8Y4BXXVN4XABviG3PKQq7KK2vS0Hs90IChaZrxwFmrV2Jv7d5iMuseibGjQRhhr5FEsnq7WfKFUuA457nuexgr_MInJRHzRmVRoeJEwKd7bF3R7jvM6P1p38M-s1P3mTtWHQhVdbQIRP3FV0C52sWgxXEDt1TkQ8binunnN-POIdHFDnWmhEJe8k4PX_hPKWxFGssrRuP2AhBKoxIxmyl_vidFe3Qy24CUDVsG58rpm_GC0]--></g></svg>