<svg xmlns="http://www.w3.org/2000/svg" xmlns:xlink="http://www.w3.org/1999/xlink" contentStyleType="text/css" data-diagram-type="CLASS" height="1385.4167px" preserveAspectRatio="none" style="width:2310px;height:1385px;" version="1.1" viewBox="0 0 2310 1385" width="2310.4167px" zoomAndPan="magnify"><title>Architecture Compl&#232;te d'un &#201;cran Android Moderne</title><defs><linearGradient id="grxcx0hkjhy8g0" x1="50%" x2="50%" y1="0%" y2="100%"><stop offset="0%" stop-color="#B8B8B8"/><stop offset="100%" stop-color="#999999"/></linearGradient><linearGradient id="grxcx0hkjhy8g1" x1="50%" x2="50%" y1="0%" y2="100%"><stop offset="0%" stop-color="#B8B8B8"/><stop offset="100%" stop-color="#6B6B6B"/></linearGradient><linearGradient id="grxcx0hkjhy8g2" x1="50%" x2="50%" y1="0%" y2="100%"><stop offset="0%" stop-color="#7C9AB9"/><stop offset="100%" stop-color="#304D6D"/></linearGradient><linearGradient id="grxcx0hkjhy8g3" x1="50%" x2="50%" y1="0%" y2="100%"><stop offset="0%" stop-color="#7C9AB9"/><stop offset="100%" stop-color="#446E9B"/></linearGradient><linearGradient id="grxcx0hkjhy8g4" x1="50%" x2="50%" y1="0%" y2="100%"><stop offset="0%" stop-color="#70B8F7"/><stop offset="100%" stop-color="#246BAA"/></linearGradient></defs><g><g class="title" data-source-line="1"><rect fill="url(#grxcx0hkjhy8g0)" height="96.4722" rx="8.3333" ry="8.3333" style="stroke:#6B6B6B;stroke-width:2.0833;" width="1247.6563" x="522.4345" y="41.6667"/><text fill="#304D6D" font-family="Verdana" font-size="41.6667" font-weight="bold" lengthAdjust="spacing" textLength="1201.8229" x="545.3511" y="106.4738">Architecture Compl&#232;te d'un &#201;cran Android Moderne</text></g><!--cluster View Layer (UI)--><g class="cluster" data-entity="View Layer .UI." data-source-line="5" data-uid="ent0002" id="cluster_View Layer .UI."><rect fill="url(#grxcx0hkjhy8g1)" height="323.125" rx="8.3333" ry="8.3333" style="stroke:#3399F3;stroke-width:4.1667;" width="927.0833" x="186.2752" y="547.243"/><path d="M452.8076,547.243 L452.8076,583.8763 L431.9742,604.7096 L186.2752,604.7096" fill="none" style="stroke:#3399F3;stroke-width:4.1667;"/><text fill="#3399F3" font-family="Verdana" font-size="25" font-weight="bold" lengthAdjust="spacing" textLength="224.8657" x="202.9418" y="584.8773">View Layer (UI)</text></g><!--cluster ViewModel Layer--><g class="cluster" data-entity="ViewModel Layer" data-source-line="13" data-uid="ent0007" id="cluster_ViewModel Layer"><path d="M93.7787,1008.4008 C122.3632,972.8845 148.3536,984.7218 168.0464,1017.9999 C180.0653,987.4288 208.9211,989.4858 225.48,1013.1963 C241.1404,981.2964 274.276,971.5133 295.3114,1007.6821 C315.6597,972.9671 350.1889,973.4265 367.8744,1010.3783 C386.2204,983.1315 411.418,986.0004 427.0012,1013.3693 C444.1771,981.904 467.8285,969.7745 495.1748,1002.5816 C518.6423,970.9153 543.4853,962.6237 568.0168,1001.4826 C589.6118,971.7016 612.4907,976.8298 628.4709,1007.1321 C651.5741,971.6658 681.901,980.1278 697.0329,1014.9119 C720.4016,983.6589 741.81,979.7679 768.7976,1010.738 C790.0215,979.5178 807.8066,982.8961 827.2012,1012.4947 C844.052,981.3339 873.4993,980.8362 894.537,1007.6301 C919.6258,969.531 953.7374,977.0666 971.4593,1015.0758 C996.7827,988.0584 1022.2141,983.1042 1040.4418,1022.4513 C1043.7509,1022.0984 1045.9868,1023.4927 1044.7403,1027.2341 C1084.736,1041.6016 1089.4856,1067.5195 1057.7311,1095.534 C1086.063,1108.5568 1092.1178,1132.3434 1068.2103,1154.6295 C1105.0329,1181.7461 1102.2902,1206.538 1062.1136,1227.1846 C1079.0141,1264.5814 1067.1053,1290.188 1025.8585,1297.6805 C1032.9449,1297.6559 1035.0185,1301.4322 1032.7198,1307.7822 C1007.1906,1338.0614 981.0764,1340.1059 959.4758,1303.4813 C942.2966,1336.8339 916.6893,1338.2169 894.2443,1308.9684 C872.2548,1337.0225 852.3236,1343.1473 827.9065,1311.6736 C813.6371,1341.7291 784.5019,1346.5745 764.5147,1317.8388 C745.9123,1350.4462 718.5382,1355.6008 693.1062,1325.6324 C672.3182,1350.4946 650.7399,1349.0364 635.0473,1320.1304 C622.319,1357.0299 589.4666,1360.2244 566.2997,1330.9799 C541.0068,1355.8024 517.4096,1348.2855 503.7813,1317.7956 C487.3512,1351.2053 452.3265,1361.2245 429.6775,1324.3527 C405.3833,1358.6976 382.8076,1354.0753 360.1629,1322.6104 C330.8181,1351.2498 309.7917,1345.5282 294.6759,1308.4348 C275.7542,1342.6573 250.6835,1349.0586 224.8487,1315.5632 C203.5042,1337.1218 175.5049,1331.7422 167.6103,1300.8778 C129.626,1337.7856 97.4595,1330.7302 75.8585,1283.0972 C79.1496,1281.3389 81.3082,1283.4203 81.4064,1286.6491 C49.659,1270.04 44.3801,1248.5835 69.7362,1221.712 C40.6453,1203.9206 44.3343,1179.4897 68.6841,1160.7756 C39.2061,1139.8885 33.3333,1112.9423 69.9388,1093.2837 C40.9444,1056.9652 45.2784,1026.3858 90.4418,1007.868 C91.6992,1006.5164 93.0418,1006.4924 93.7787,1008.4008" fill="url(#grxcx0hkjhy8g1)" style="stroke:#446E9B;stroke-width:2.0833;"/><text fill="#333333" font-family="Verdana" font-size="25" font-weight="bold" lengthAdjust="spacing" textLength="238.6841" x="438.8081" y="1053.8356">ViewModel Layer</text></g><!--cluster Data Layer (Model)--><g class="cluster" data-entity="Data Layer .Model." data-source-line="21" data-uid="ent0012" id="cluster_Data Layer .Model."><path d="M1163.3585,194.3888 C1163.3585,173.5555 1714.4002,173.5555 1714.4002,173.5555 C1714.4002,173.5555 2265.4418,173.5555 2265.4418,194.3888 L2265.4418,849.5347 C2265.4418,870.368 1714.4002,870.368 1714.4002,870.368 C1714.4002,870.368 1163.3585,870.368 1163.3585,849.5347 L1163.3585,194.3888" fill="url(#grxcx0hkjhy8g1)" style="stroke:#446E9B;stroke-width:2.0833;"/><path d="M1163.3585,194.3888 C1163.3585,215.2222 1714.4002,215.2222 1714.4002,215.2222 C1714.4002,215.2222 2265.4418,215.2222 2265.4418,194.3888" fill="none" style="stroke:#446E9B;stroke-width:2.0833;"/><text fill="#FFFFFF" font-family="Verdana" font-size="25" font-weight="bold" lengthAdjust="spacing" textLength="271.2158" x="1578.7923" y="254.9398">Data Layer (Model)</text></g><!--class View--><g class="entity" data-entity="View" data-source-line="6" data-uid="ent0003" id="entity_View"><rect fill="url(#grxcx0hkjhy8g2)" height="200.2207" rx="8.3333" ry="8.3333" style="stroke:#304D6D;stroke-width:2.0833;" width="319.6065" x="220.2127" y="636.8263"/><rect fill="url(#grxcx0hkjhy8g3)" height="69.518" rx="8.3333" ry="8.3333" style="stroke:url(#grxcx0hkjhy8g3);stroke-width:2.0833;" width="319.6065" x="220.2127" y="636.8263"/><rect fill="url(#grxcx0hkjhy8g3)" height="8.3333" style="stroke:url(#grxcx0hkjhy8g3);stroke-width:2.0833;" width="319.6065" x="220.2127" y="698.011"/><rect fill="none" height="200.2207" rx="8.3333" ry="8.3333" style="stroke:#304D6D;stroke-width:2.0833;" width="319.6065" x="220.2127" y="636.8263"/><ellipse cx="262.8948" cy="671.5853" fill="#B8B8B8" rx="20.8333" ry="20.8333" style="stroke:#6B6B6B;stroke-width:2.0833;"/><path d="M266.7156,680.4354 Q265.8611,680.8749 264.9212,681.0946 Q263.9812,681.3144 262.9436,681.3144 Q259.2571,681.3144 257.3162,678.8852 Q255.3753,676.456 255.3753,671.8661 Q255.3753,667.2641 257.3162,664.8349 Q259.2571,662.4057 262.9436,662.4057 Q263.9812,662.4057 264.9334,662.6254 Q265.8855,662.8451 266.7156,663.2846 L266.7156,667.2885 Q265.7879,666.434 264.9151,666.0373 Q264.0423,665.6405 263.1145,665.6405 Q261.137,665.6405 260.1299,667.2091 Q259.1228,668.7777 259.1228,671.8661 Q259.1228,674.9423 260.1299,676.5109 Q261.137,678.0795 263.1145,678.0795 Q264.0423,678.0795 264.9151,677.6828 Q265.7879,677.286 266.7156,676.4315 Z " fill="#FFFFFF"/><text fill="#EEEEEE" font-family="Verdana" font-size="22.9167" lengthAdjust="spacing" textLength="206.2388" x="303.3982" y="680.6994">Fragment/Activity</text><line style="stroke:#304D6D;stroke-width:2.0833;" x1="222.296" x2="537.7359" y1="706.3444" y2="706.3444"/><ellipse cx="243.1293" cy="742.145" fill="none" rx="6.25" ry="6.25" style="stroke:#304D6D;stroke-width:2.0833;"/><text fill="#EEEEEE" font-family="Verdana" font-size="22.9167" lengthAdjust="spacing" textLength="151.1068" x="270.2127" y="748.1341">RecyclerView</text><ellipse cx="243.1293" cy="790.8297" fill="none" rx="6.25" ry="6.25" style="stroke:#304D6D;stroke-width:2.0833;"/><text fill="#EEEEEE" font-family="Verdana" font-size="22.9167" lengthAdjust="spacing" textLength="246.6899" x="270.2127" y="796.8188">Buttons, TextViews...</text><line style="stroke:#304D6D;stroke-width:2.0833;" x1="222.296" x2="537.7359" y1="820.3804" y2="820.3804"/></g><g class="entity" data-entity="GMN4" data-source-line="10" data-uid="ent0005" id="entity_GMN4"><path d="M612.6293,694.0555 L612.6293,728.5972 L540.4418,736.9305 L612.6293,745.2638 L612.6293,779.8221 A8.3333,8.3333 0 0 0 620.9627,788.1554 L1072.4072,788.1554 A8.3333,8.3333 0 0 0 1080.7405,779.8221 L1080.7405,706.5555 L1059.9072,685.7222 L620.9627,685.7222 A8.3333,8.3333 0 0 0 612.6293,694.0555" fill="url(#grxcx0hkjhy8g4)" style="stroke:#246BAA;stroke-width:2.0833;"/><path d="M1059.9072,685.7222 L1059.9072,702.3888 A4.1667,4.1667 0 0 0 1064.0738,706.5555 L1080.7405,706.5555 L1059.9072,685.7222" fill="url(#grxcx0hkjhy8g4)" style="stroke:#246BAA;stroke-width:2.0833;"/><text fill="#FFFFFF" font-family="Verdana" font-size="25" lengthAdjust="spacing" textLength="284.8267" x="635.546" y="731.6898">Observe le ViewModel.</text><text fill="#FFFFFF" font-family="Verdana" font-size="25" lengthAdjust="spacing" textLength="403.5278" x="635.546" y="762.0731">Transmet les actions utilisateur.</text></g><!--class ViewModel--><g class="entity" data-entity="ViewModel" data-source-line="14" data-uid="ent0008" id="entity_ViewModel"><rect fill="url(#grxcx0hkjhy8g2)" height="200.2207" rx="8.3333" ry="8.3333" style="stroke:#304D6D;stroke-width:2.0833;" width="403.8544" x="619.7543" y="1080.7847"/><rect fill="url(#grxcx0hkjhy8g3)" height="69.518" rx="8.3333" ry="8.3333" style="stroke:url(#grxcx0hkjhy8g3);stroke-width:2.0833;" width="403.8544" x="619.7543" y="1080.7847"/><rect fill="url(#grxcx0hkjhy8g3)" height="8.3333" style="stroke:url(#grxcx0hkjhy8g3);stroke-width:2.0833;" width="403.8544" x="619.7543" y="1141.9694"/><rect fill="none" height="200.2207" rx="8.3333" ry="8.3333" style="stroke:#304D6D;stroke-width:2.0833;" width="403.8544" x="619.7543" y="1080.7847"/><ellipse cx="725.5934" cy="1115.5437" fill="#B8B8B8" rx="20.8333" ry="20.8333" style="stroke:#6B6B6B;stroke-width:2.0833;"/><path d="M729.4142,1124.3938 Q728.5597,1124.8332 727.6197,1125.053 Q726.6798,1125.2727 725.6422,1125.2727 Q721.9557,1125.2727 720.0148,1122.8435 Q718.0738,1120.4143 718.0738,1115.8244 Q718.0738,1111.2224 720.0148,1108.7932 Q721.9557,1106.364 725.6422,1106.364 Q726.6798,1106.364 727.6319,1106.5837 Q728.5841,1106.8034 729.4142,1107.2429 L729.4142,1111.2468 Q728.4864,1110.3923 727.6136,1109.9956 Q726.7408,1109.5989 725.8131,1109.5989 Q723.8356,1109.5989 722.8285,1111.1675 Q721.8214,1112.7361 721.8214,1115.8244 Q721.8214,1118.9006 722.8285,1120.4692 Q723.8356,1122.0378 725.8131,1122.0378 Q726.7408,1122.0378 727.6136,1121.6411 Q728.4864,1121.2444 729.4142,1120.3899 Z " fill="#FFFFFF"/><text fill="#EEEEEE" font-family="Verdana" font-size="22.9167" lengthAdjust="spacing" textLength="154.6763" x="775.5934" y="1124.6578">MyViewModel</text><line style="stroke:#304D6D;stroke-width:2.0833;" x1="621.8377" x2="1021.5254" y1="1150.3027" y2="1150.3027"/><ellipse cx="642.671" cy="1186.1034" fill="none" rx="6.25" ry="6.25" style="stroke:#304D6D;stroke-width:2.0833;"/><text fill="#EEEEEE" font-family="Verdana" font-size="22.9167" lengthAdjust="spacing" textLength="330.9377" x="669.7543" y="1192.0924">state: LiveData&lt;MyUiState&gt;</text><line style="stroke:#304D6D;stroke-width:2.0833;" x1="621.8377" x2="1021.5254" y1="1215.6541" y2="1215.6541"/><ellipse cx="642.671" cy="1251.4547" fill="none" rx="6.25" ry="6.25" style="stroke:#304D6D;stroke-width:2.0833;"/><text fill="#EEEEEE" font-family="Verdana" font-size="22.9167" lengthAdjust="spacing" textLength="172.703" x="669.7543" y="1257.4438">onUserAction()</text></g><g class="entity" data-entity="GMN9" data-source-line="18" data-uid="ent0010" id="entity_GMN9"><path d="M93.2335,1138.0138 L93.2335,1223.7804 A8.3333,8.3333 0 0 0 101.5668,1232.1138 L537.6305,1232.1138 A8.3333,8.3333 0 0 0 545.9638,1223.7804 L545.9638,1189.243 L618.796,1180.9097 L545.9638,1172.5763 L545.9638,1150.5138 L525.1305,1129.6805 L101.5668,1129.6805 A8.3333,8.3333 0 0 0 93.2335,1138.0138" fill="url(#grxcx0hkjhy8g4)" style="stroke:#246BAA;stroke-width:2.0833;"/><path d="M525.1305,1129.6805 L525.1305,1146.3472 A4.1667,4.1667 0 0 0 529.2971,1150.5138 L545.9638,1150.5138 L525.1305,1129.6805" fill="url(#grxcx0hkjhy8g4)" style="stroke:#246BAA;stroke-width:2.0833;"/><text fill="#FFFFFF" font-family="Verdana" font-size="25" lengthAdjust="spacing" textLength="388.147" x="116.1502" y="1175.6481">Contient l'&#233;tat et la logique UI.</text><text fill="#FFFFFF" font-family="Verdana" font-size="25" lengthAdjust="spacing" textLength="294.2017" x="116.1502" y="1206.0314">Ne conna&#238;t pas la View.</text></g><!--class Repository--><g class="entity" data-entity="Repository" data-source-line="22" data-uid="ent0013" id="entity_Repository"><rect fill="url(#grxcx0hkjhy8g2)" height="200.2207" rx="8.3333" ry="8.3333" style="stroke:#304D6D;stroke-width:2.0833;" width="432.5338" x="1230.421" y="636.8263"/><rect fill="url(#grxcx0hkjhy8g3)" height="69.518" rx="8.3333" ry="8.3333" style="stroke:url(#grxcx0hkjhy8g3);stroke-width:2.0833;" width="432.5338" x="1230.421" y="636.8263"/><rect fill="url(#grxcx0hkjhy8g3)" height="8.3333" style="stroke:url(#grxcx0hkjhy8g3);stroke-width:2.0833;" width="432.5338" x="1230.421" y="698.011"/><rect fill="none" height="200.2207" rx="8.3333" ry="8.3333" style="stroke:#304D6D;stroke-width:2.0833;" width="432.5338" x="1230.421" y="636.8263"/><ellipse cx="1350.3592" cy="671.5853" fill="#B8B8B8" rx="20.8333" ry="20.8333" style="stroke:#6B6B6B;stroke-width:2.0833;"/><path d="M1354.18,680.4354 Q1353.3255,680.8749 1352.3855,681.0946 Q1351.4456,681.3144 1350.408,681.3144 Q1346.7215,681.3144 1344.7805,678.8852 Q1342.8396,676.456 1342.8396,671.8661 Q1342.8396,667.2641 1344.7805,664.8349 Q1346.7215,662.4057 1350.408,662.4057 Q1351.4456,662.4057 1352.3977,662.6254 Q1353.3499,662.8451 1354.18,663.2846 L1354.18,667.2885 Q1353.2522,666.434 1352.3794,666.0373 Q1351.5066,665.6405 1350.5789,665.6405 Q1348.6013,665.6405 1347.5943,667.2091 Q1346.5872,668.7777 1346.5872,671.8661 Q1346.5872,674.9423 1347.5943,676.5109 Q1348.6013,678.0795 1350.5789,678.0795 Q1351.5066,678.0795 1352.3794,677.6828 Q1353.2522,677.286 1354.18,676.4315 Z " fill="#FFFFFF"/><text fill="#EEEEEE" font-family="Verdana" font-size="22.9167" lengthAdjust="spacing" textLength="155.1575" x="1400.3592" y="680.6994">MyRepository</text><line style="stroke:#304D6D;stroke-width:2.0833;" x1="1232.5043" x2="1660.8714" y1="706.3444" y2="706.3444"/><line style="stroke:#304D6D;stroke-width:2.0833;" x1="1232.5043" x2="1660.8714" y1="723.011" y2="723.011"/><ellipse cx="1253.3377" cy="758.8117" fill="none" rx="6.25" ry="6.25" style="stroke:#304D6D;stroke-width:2.0833;"/><text fill="#EEEEEE" font-family="Verdana" font-size="22.9167" lengthAdjust="spacing" textLength="359.6171" x="1280.421" y="764.8008">getUsers(): Flow&lt;List&lt;User&gt;&gt;</text><ellipse cx="1253.3377" cy="807.4964" fill="none" rx="6.25" ry="6.25" style="stroke:#304D6D;stroke-width:2.0833;"/><text fill="#EEEEEE" font-family="Verdana" font-size="22.9167" lengthAdjust="spacing" textLength="166.2577" x="1280.421" y="813.4855">refreshUsers()</text></g><g class="entity" data-entity="GMN14" data-source-line="26" data-uid="ent0015" id="entity_GMN14"><path d="M1736.796,694.0555 L1736.796,728.5972 L1663.546,736.9305 L1736.796,745.2638 L1736.796,779.8221 A8.3333,8.3333 0 0 0 1745.1293,788.1554 L2210.7462,788.1554 A8.3333,8.3333 0 0 0 2219.0795,779.8221 L2219.0795,706.5555 L2198.2462,685.7222 L1745.1293,685.7222 A8.3333,8.3333 0 0 0 1736.796,694.0555" fill="url(#grxcx0hkjhy8g4)" style="stroke:#246BAA;stroke-width:2.0833;"/><path d="M2198.2462,685.7222 L2198.2462,702.3888 A4.1667,4.1667 0 0 0 2202.4129,706.5555 L2219.0795,706.5555 L2198.2462,685.7222" fill="url(#grxcx0hkjhy8g4)" style="stroke:#246BAA;stroke-width:2.0833;"/><text fill="#FFFFFF" font-family="Verdana" font-size="25" lengthAdjust="spacing" textLength="309.3506" x="1759.7127" y="731.6898">Source de v&#233;rit&#233; unique.</text><text fill="#FFFFFF" font-family="Verdana" font-size="25" lengthAdjust="spacing" textLength="417.7002" x="1759.7127" y="762.0731">Cache la complexit&#233; des sources.</text></g><!--class LocalDS--><g class="entity" data-entity="LocalDS" data-source-line="28" data-uid="ent0017" id="entity_LocalDS"><rect fill="url(#grxcx0hkjhy8g2)" height="102.8514" rx="8.3333" ry="8.3333" style="stroke:#304D6D;stroke-width:2.0833;" width="462.5997" x="1769.5668" y="294.3888"/><rect fill="url(#grxcx0hkjhy8g3)" height="69.518" rx="8.3333" ry="8.3333" style="stroke:url(#grxcx0hkjhy8g3);stroke-width:2.0833;" width="462.5997" x="1769.5668" y="294.3888"/><rect fill="url(#grxcx0hkjhy8g3)" height="8.3333" style="stroke:url(#grxcx0hkjhy8g3);stroke-width:2.0833;" width="462.5997" x="1769.5668" y="355.5735"/><rect fill="none" height="102.8514" rx="8.3333" ry="8.3333" style="stroke:#304D6D;stroke-width:2.0833;" width="462.5997" x="1769.5668" y="294.3888"/><ellipse cx="1798.7335" cy="329.1478" fill="#DC4E4D" rx="20.8333" ry="20.8333" style="stroke:#900100;stroke-width:2.0833;"/><path d="M1792.4998,323.4716 L1792.4998,320.2977 L1803.3518,320.2977 L1803.3518,323.4716 L1799.7263,323.4716 L1799.7263,335.349 L1803.3518,335.349 L1803.3518,338.5228 L1792.4998,338.5228 L1792.4998,335.349 L1796.1253,335.349 L1796.1253,323.4716 Z " fill="#FFFFFF"/><text fill="#EEEEEE" font-family="Verdana" font-size="22.9167" font-style="italic" lengthAdjust="spacing" textLength="379.2664" x="1836.2335" y="338.2619">MyLocalDataSource (Room DAO)</text><line style="stroke:#304D6D;stroke-width:2.0833;" x1="1771.6502" x2="2230.0832" y1="363.9069" y2="363.9069"/><line style="stroke:#304D6D;stroke-width:2.0833;" x1="1771.6502" x2="2230.0832" y1="380.5735" y2="380.5735"/></g><!--class RemoteDS--><g class="entity" data-entity="RemoteDS" data-source-line="29" data-uid="ent0018" id="entity_RemoteDS"><rect fill="url(#grxcx0hkjhy8g2)" height="102.8514" rx="8.3333" ry="8.3333" style="stroke:#304D6D;stroke-width:2.0833;" width="499.9288" x="1196.7335" y="294.3888"/><rect fill="url(#grxcx0hkjhy8g3)" height="69.518" rx="8.3333" ry="8.3333" style="stroke:url(#grxcx0hkjhy8g3);stroke-width:2.0833;" width="499.9288" x="1196.7335" y="294.3888"/><rect fill="url(#grxcx0hkjhy8g3)" height="8.3333" style="stroke:url(#grxcx0hkjhy8g3);stroke-width:2.0833;" width="499.9288" x="1196.7335" y="355.5735"/><rect fill="none" height="102.8514" rx="8.3333" ry="8.3333" style="stroke:#304D6D;stroke-width:2.0833;" width="499.9288" x="1196.7335" y="294.3888"/><ellipse cx="1225.9002" cy="329.1478" fill="#DC4E4D" rx="20.8333" ry="20.8333" style="stroke:#900100;stroke-width:2.0833;"/><path d="M1219.6664,323.4716 L1219.6664,320.2977 L1230.5185,320.2977 L1230.5185,323.4716 L1226.893,323.4716 L1226.893,335.349 L1230.5185,335.349 L1230.5185,338.5228 L1219.6664,338.5228 L1219.6664,335.349 L1223.2919,335.349 L1223.2919,323.4716 Z " fill="#FFFFFF"/><text fill="#EEEEEE" font-family="Verdana" font-size="22.9167" font-style="italic" lengthAdjust="spacing" textLength="416.5955" x="1263.4002" y="338.2619">MyRemoteDataSource (Retrofit API)</text><line style="stroke:#304D6D;stroke-width:2.0833;" x1="1198.8168" x2="1694.579" y1="363.9069" y2="363.9069"/><line style="stroke:#304D6D;stroke-width:2.0833;" x1="1198.8168" x2="1694.579" y1="380.5735" y2="380.5735"/></g><!--reverse link ViewModel to View--><g class="link" data-entity-1="ViewModel" data-entity-2="View" data-source-line="32" data-uid="lnk20" id="link_ViewModel_View"><path codeLine="32" d="M817.4281,1067.5408 C810.1781,1007.27 791.8168,946.3055 740.4418,903.7013 C712.1502,880.243 610.0877,900.4722 575.8585,887.0347 C545.5043,875.1388 515.8168,857.118 489.0877,837.7222" fill="none" id="ViewModel-backto-View" style="stroke:#446E9B;stroke-width:6.25;"/><polygon fill="#446E9B" points="818.921,1079.9513,824.9554,1060.3403,817.6769,1069.6092,808.408,1062.3308,818.921,1079.9513" style="stroke:#446E9B;stroke-width:6.25;"/><text fill="#FFFFFF" font-family="Verdana" font-size="25" lengthAdjust="spacing" textLength="188.4033" x="795.5252" y="941.3356">onUserAction()</text></g><!--reverse link View to ViewModel--><g class="link" data-entity-1="View" data-entity-2="ViewModel" data-source-line="33" data-uid="lnk22" id="link_View_ViewModel"><path codeLine="33" d="M341.6151,850.2877 C333.1568,892.2044 336.2127,926.3055 365.4418,957.868 C398.2543,993.3055 537.4627,956.118 582.1085,974.5347 C638.6918,997.8888 691.6293,1039.9097 733.2752,1079.8055" fill="none" id="View-backto-ViewModel" style="stroke:#446E9B;stroke-width:6.25;"/><polygon fill="#446E9B" points="344.0877,838.0347,332.2102,854.7659,342.0272,848.2455,348.5476,858.0626,344.0877,838.0347" style="stroke:#446E9B;stroke-width:6.25;"/><text fill="#FFFFFF" font-family="Verdana" font-size="25" lengthAdjust="spacing" textLength="333.4106" x="377.9418" y="941.3356">(via LiveData observation)</text></g><!--reverse link Repository to ViewModel--><g class="link" data-entity-1="Repository" data-entity-2="ViewModel" data-source-line="35" data-uid="lnk24" id="link_Repository_ViewModel"><path codeLine="35" d="M1296.1978,844.9149 C1193.4478,917.2066 1064.796,1007.743 962.0252,1080.0763" fill="none" id="Repository-backto-ViewModel" style="stroke:#446E9B;stroke-width:6.25;"/><polygon fill="#446E9B" points="1306.421,837.7222,1286.291,841.6958,1297.9016,843.7161,1295.8813,855.3268,1306.421,837.7222" style="stroke:#446E9B;stroke-width:6.25;"/><text fill="#FFFFFF" font-family="Verdana" font-size="25" lengthAdjust="spacing" textLength="132.9346" x="1221.046" y="941.3356">getUsers()</text></g><!--reverse link LocalDS to Repository--><g class="link" data-entity-1="LocalDS" data-entity-2="Repository" data-source-line="37" data-uid="lnk26" id="link_LocalDS_Repository"><path codeLine="37" d="M1923.1374,405.4351 C1873.3249,440.9351 1813.1502,480.6597 1746.6918,513.9097 C1727.296,523.5972 1719.7543,519.9305 1700.8585,530.5763 C1649.0668,559.743 1597.0043,599.3472 1553.6085,635.9305" fill="none" id="LocalDS-backto-Repository" style="stroke:#446E9B;stroke-width:6.25;"/><polygon fill="#446E9B" points="1933.3168,398.1805,1913.2113,402.2761,1924.834,404.226,1922.8841,415.8487,1933.3168,398.1805" style="stroke:#446E9B;stroke-width:6.25;"/><text fill="#FFFFFF" font-family="Verdana" font-size="25" lengthAdjust="spacing" textLength="224.7192" x="1853.3377" y="497.3773">getCachedUsers()</text></g><!--reverse link RemoteDS to Repository--><g class="link" data-entity-1="RemoteDS" data-entity-2="Repository" data-source-line="38" data-uid="lnk28" id="link_RemoteDS_Repository"><path codeLine="38" d="M1446.6918,410.2013 C1446.6918,470.2013 1446.6918,559.9722 1446.6918,636.1597" fill="none" id="RemoteDS-backto-Repository" style="stroke:#446E9B;stroke-width:6.25;"/><polygon fill="#446E9B" points="1446.6918,397.7013,1438.3585,416.4513,1446.6918,408.118,1455.0252,416.4513,1446.6918,397.7013" style="stroke:#446E9B;stroke-width:6.25;"/><text fill="#FFFFFF" font-family="Verdana" font-size="25" lengthAdjust="spacing" textLength="259.0454" x="1459.1918" y="497.3773">fetchUsersFromApi()</text></g><!--SRC=[RPB1Zjf038RlUGgNonArczuHGafP8I51juAbfrw6YO5H9pDqnc4NLVi0VPDowKlanTOp2In4FKHAxD_E_zacHHeXTtAd22LL3c5ioxsk_n92SLSPgFz89mpafd1M5J2t1Jg3IVA1TbWY-BsGgCKwIVZbfzWYzBuhV8QPEAA3_cgQzc0ud3XHucW4lnC0gONtqEFGjaH3dtD9wg3es0FX8TO65S17MA0yIeqk1DlGbuh86ly9dl25GjndMSQvLtwCPSzERNSqWCUrHtT0OBYW2gvrziCyCOelaJZkGV2FkHTKfBJoWh1oMVBQ0OcL3Kq06MjR5RSWy-D5Tq5egiuSdhZv06RgW0-2n71-NAbbY8rQWJKhjfj7F_tq6aVZXcd6rf3YMO6-gqzS2850WBPRzQj2M4qPxIk2jCQ8-X_1dcrmFZYv9Gg_FwycUepR2T6ryDZbMk3UUaNMDRjv_xoGRP62SzzF1p3HzdauKvw68JGwipdSEFIxLlQVLIrjvIGV6yAXFZb5zGag4xWOQYpa3WEA34U9Bp5RyEvyBF9PmisK8NGRFiFWUMQbq06eRTjVM5l2G_wOHeOclUnMBR1aHpTbICvk547-RPgs-56p30EDPtfVtO-kjZtehl4zTL6og7zGud8AOEETYb2H9jsAgu4FhaQT95U9A6of6bMSMN7MTgLd2jPka6IpbucpPRvNeVKR]--></g></svg>