<svg xmlns="http://www.w3.org/2000/svg" xmlns:xlink="http://www.w3.org/1999/xlink" contentStyleType="text/css" data-diagram-type="SEQUENCE" height="1058px" preserveAspectRatio="none" style="width:2138px;height:1058px;background:#FFFFFF;" version="1.1" viewBox="0 0 2138 1058" width="2138px" zoomAndPan="magnify"><title>Flux de Planification d'une T&#226;che avec WorkManager</title><defs/><g><text fill="#000000" font-family="sans-serif" font-size="28" font-weight="bold" lengthAdjust="spacing" textLength="755.959" x="705.3228" y="57.0703">Flux de Planification d'une T&#226;che avec WorkManager</text><g><title>Fragment</title><rect fill="#FFFFFF" height="138.5527" style="stroke:#181818;stroke-width:2;" width="20" x="402.0908" y="300.5742"/></g><g><title>WorkManager</title><rect fill="#FFFFFF" height="260.4844" style="stroke:#181818;stroke-width:2;" width="20" x="1030.707" y="600.9688"/></g><g><title>Worker</title><rect fill="#FFFFFF" height="143.2422" style="stroke:#181818;stroke-width:2;" width="20" x="1653.0098" y="718.2109"/></g><g><title>User</title><rect fill="#000000" fill-opacity="0.00000" height="238.4844" width="16" x="38.3652" y="237.9531"/><line style="stroke:#181818;stroke-width:1;stroke-dasharray:10,10;" x1="46" x2="46" y1="237.9531" y2="476.4375"/></g><line style="stroke:#181818;stroke-width:1;stroke-dasharray:2,8;" x1="46" x2="46" y1="476.4375" y2="558.3477"/><g><title>User</title><rect fill="#000000" fill-opacity="0.00000" height="339.1055" width="16" x="38.3652" y="558.3477"/><line style="stroke:#181818;stroke-width:1;stroke-dasharray:10,10;" x1="46" x2="46" y1="558.3477" y2="897.4531"/></g><g><title>Fragment</title><rect fill="#000000" fill-opacity="0.00000" height="238.4844" width="16" x="404.0908" y="237.9531"/><line style="stroke:#181818;stroke-width:1;stroke-dasharray:10,10;" x1="411.6006" x2="411.6006" y1="237.9531" y2="476.4375"/></g><line style="stroke:#181818;stroke-width:1;stroke-dasharray:2,8;" x1="411.6006" x2="411.6006" y1="476.4375" y2="558.3477"/><g><title>Fragment</title><rect fill="#000000" fill-opacity="0.00000" height="339.1055" width="16" x="404.0908" y="558.3477"/><line style="stroke:#181818;stroke-width:1;stroke-dasharray:10,10;" x1="411.6006" x2="411.6006" y1="558.3477" y2="897.4531"/></g><g><title>WorkManager</title><rect fill="#000000" fill-opacity="0.00000" height="238.4844" width="16" x="1032.707" y="237.9531"/><line style="stroke:#181818;stroke-width:1;stroke-dasharray:10,10;" x1="1039.752" x2="1039.752" y1="237.9531" y2="476.4375"/></g><line style="stroke:#181818;stroke-width:1;stroke-dasharray:2,8;" x1="1039.752" x2="1039.752" y1="476.4375" y2="558.3477"/><g><title>WorkManager</title><rect fill="#000000" fill-opacity="0.00000" height="339.1055" width="16" x="1032.707" y="558.3477"/><line style="stroke:#181818;stroke-width:1;stroke-dasharray:10,10;" x1="1039.752" x2="1039.752" y1="558.3477" y2="897.4531"/></g><g><title>Android System</title><rect fill="#000000" fill-opacity="0.00000" height="238.4844" width="16" x="1452.1211" y="237.9531"/><line style="stroke:#181818;stroke-width:1;stroke-dasharray:10,10;" x1="1459.248" x2="1459.248" y1="237.9531" y2="476.4375"/></g><line style="stroke:#181818;stroke-width:1;stroke-dasharray:2,8;" x1="1459.248" x2="1459.248" y1="476.4375" y2="558.3477"/><g><title>Android System</title><rect fill="#000000" fill-opacity="0.00000" height="339.1055" width="16" x="1452.1211" y="558.3477"/><line style="stroke:#181818;stroke-width:1;stroke-dasharray:10,10;" x1="1459.248" x2="1459.248" y1="558.3477" y2="897.4531"/></g><g><title>Worker</title><rect fill="#000000" fill-opacity="0.00000" height="238.4844" width="16" x="1655.0098" y="237.9531"/><line style="stroke:#181818;stroke-width:1;stroke-dasharray:10,10;" x1="1662.9941" x2="1662.9941" y1="237.9531" y2="476.4375"/></g><line style="stroke:#181818;stroke-width:1;stroke-dasharray:2,8;" x1="1662.9941" x2="1662.9941" y1="476.4375" y2="558.3477"/><g><title>Worker</title><rect fill="#000000" fill-opacity="0.00000" height="339.1055" width="16" x="1655.0098" y="558.3477"/><line style="stroke:#181818;stroke-width:1;stroke-dasharray:10,10;" x1="1662.9941" x2="1662.9941" y1="558.3477" y2="897.4531"/></g><g class="participant participant-head" data-participant="User"><text fill="#000000" font-family="sans-serif" font-size="28" lengthAdjust="spacing" textLength="60.7305" x="10" y="232.0469">User</text><ellipse cx="46.3652" cy="101.9766" fill="#E2E2F0" rx="16" ry="16" style="stroke:#181818;stroke-width:1;"/><path d="M46.3652,117.9766 L46.3652,171.9766 M20.3652,133.9766 L72.3652,133.9766 M46.3652,171.9766 L20.3652,201.9766 M46.3652,171.9766 L72.3652,201.9766" fill="none" style="stroke:#181818;stroke-width:1;"/></g><g class="participant participant-tail" data-participant="User"><text fill="#000000" font-family="sans-serif" font-size="28" lengthAdjust="spacing" textLength="60.7305" x="10" y="922.5234">User</text><ellipse cx="46.3652" cy="945.4297" fill="#E2E2F0" rx="16" ry="16" style="stroke:#181818;stroke-width:1;"/><path d="M46.3652,961.4297 L46.3652,1015.4297 M20.3652,977.4297 L72.3652,977.4297 M46.3652,1015.4297 L20.3652,1045.4297 M46.3652,1015.4297 L72.3652,1045.4297" fill="none" style="stroke:#181818;stroke-width:1;"/></g><g class="participant participant-head" data-participant="Fragment"><rect fill="#E2E2F0" height="60.9766" rx="5" ry="5" style="stroke:#181818;stroke-width:1;" width="156.9805" x="333.6006" y="174.9766"/><text fill="#000000" font-family="sans-serif" font-size="28" lengthAdjust="spacing" textLength="128.9805" x="347.6006" y="216.0469">Fragment</text></g><g class="participant participant-tail" data-participant="Fragment"><rect fill="#E2E2F0" height="60.9766" rx="5" ry="5" style="stroke:#181818;stroke-width:1;" width="156.9805" x="333.6006" y="895.4531"/><text fill="#000000" font-family="sans-serif" font-size="28" lengthAdjust="spacing" textLength="128.9805" x="347.6006" y="936.5234">Fragment</text></g><g class="participant participant-head" data-participant="WorkManager"><rect fill="#E2E2F0" height="60.9766" rx="5" ry="5" style="stroke:#181818;stroke-width:1;" width="213.9102" x="933.752" y="174.9766"/><text fill="#000000" font-family="sans-serif" font-size="28" lengthAdjust="spacing" textLength="185.9102" x="947.752" y="216.0469">WorkManager</text></g><g class="participant participant-tail" data-participant="WorkManager"><rect fill="#E2E2F0" height="60.9766" rx="5" ry="5" style="stroke:#181818;stroke-width:1;" width="213.9102" x="933.752" y="895.4531"/><text fill="#000000" font-family="sans-serif" font-size="28" lengthAdjust="spacing" textLength="185.9102" x="947.752" y="936.5234">WorkManager</text></g><g class="participant participant-head" data-participant="OS"><rect fill="#E2E2F0" height="60.9766" rx="5" ry="5" style="stroke:#181818;stroke-width:1;" width="241.7461" x="1339.248" y="174.9766"/><text fill="#000000" font-family="sans-serif" font-size="28" lengthAdjust="spacing" textLength="213.7461" x="1353.248" y="216.0469">Android System</text></g><g class="participant participant-tail" data-participant="OS"><rect fill="#E2E2F0" height="60.9766" rx="5" ry="5" style="stroke:#181818;stroke-width:1;" width="241.7461" x="1339.248" y="895.4531"/><text fill="#000000" font-family="sans-serif" font-size="28" lengthAdjust="spacing" textLength="213.7461" x="1353.248" y="936.5234">Android System</text></g><g class="participant participant-head" data-participant="Worker"><rect fill="#E2E2F0" height="60.9766" rx="5" ry="5" style="stroke:#181818;stroke-width:1;" width="124.0313" x="1600.9941" y="174.9766"/><text fill="#000000" font-family="sans-serif" font-size="28" lengthAdjust="spacing" textLength="96.0313" x="1614.9941" y="216.0469">Worker</text></g><g class="participant participant-tail" data-participant="Worker"><rect fill="#E2E2F0" height="60.9766" rx="5" ry="5" style="stroke:#181818;stroke-width:1;" width="124.0313" x="1600.9941" y="895.4531"/><text fill="#000000" font-family="sans-serif" font-size="28" lengthAdjust="spacing" textLength="96.0313" x="1614.9941" y="936.5234">Worker</text></g><g><title>Fragment</title><rect fill="#FFFFFF" height="138.5527" style="stroke:#181818;stroke-width:2;" width="20" x="402.0908" y="300.5742"/></g><g><title>WorkManager</title><rect fill="#FFFFFF" height="260.4844" style="stroke:#181818;stroke-width:2;" width="20" x="1030.707" y="600.9688"/></g><g><title>Worker</title><rect fill="#FFFFFF" height="143.2422" style="stroke:#181818;stroke-width:2;" width="20" x="1653.0098" y="718.2109"/></g><g class="message" data-participant-1="User" data-participant-2="Fragment"><polygon fill="#181818" points="378.0908,292.5742,398.0908,300.5742,378.0908,308.5742,386.0908,300.5742" style="stroke:#181818;stroke-width:2;"/><line style="stroke:#181818;stroke-width:2;" x1="46.3652" x2="390.0908" y1="300.5742" y2="300.5742"/><text fill="#000000" font-family="sans-serif" font-size="26" lengthAdjust="spacing" textLength="317.7256" x="60.3652" y="291.0898">Clique sur "Synchroniser"</text></g><g class="message" data-participant-1="Fragment" data-participant-2="WorkManager"><polygon fill="#181818" points="1016.707,351.1953,1036.707,359.1953,1016.707,367.1953,1024.707,359.1953" style="stroke:#181818;stroke-width:2;"/><line style="stroke:#181818;stroke-width:2;" x1="422.0908" x2="1028.707" y1="359.1953" y2="359.1953"/><text fill="#000000" font-family="sans-serif" font-size="26" lengthAdjust="spacing" textLength="570.6162" x="436.0908" y="349.7109">Cr&#233;e une WorkRequest pour MySimpleWorker</text></g><g class="message" data-participant-1="Fragment" data-participant-2="WorkManager"><polygon fill="#181818" points="1016.707,431.127,1036.707,439.127,1016.707,447.127,1024.707,439.127" style="stroke:#181818;stroke-width:2;"/><line style="stroke:#181818;stroke-width:2;" x1="412.0908" x2="1028.707" y1="439.127" y2="439.127"/><text fill="#000000" font-family="sans-serif" font-size="26" lengthAdjust="spacing" textLength="228.4521" x="426.0908" y="429.6426">.enqueue(request)</text></g><path d="M1050,385.1953 L1050,465.1953 L1516,465.1953 L1516,405.1953 L1496,385.1953 L1050,385.1953" fill="#FEFFDD" style="stroke:#181818;stroke-width:1;"/><path d="M1496,385.1953 L1496,405.1953 L1516,405.1953 L1496,385.1953" fill="#FEFFDD" style="stroke:#181818;stroke-width:1;"/><text fill="#000000" font-family="sans-serif" font-size="26" lengthAdjust="spacing" textLength="425.623" x="1062" y="420.332">La t&#226;che est maintenant planifi&#233;e.</text><text fill="#000000" font-family="sans-serif" font-size="26" lengthAdjust="spacing" textLength="400.7402" x="1062" y="450.9531">Fragment peut continuer sa vie.</text><text fill="#000000" font-family="sans-serif" font-size="22" lengthAdjust="spacing" textLength="467.6182" x="620.8784" y="525.707">plus tard (le syst&#232;me &#233;value les contraintes)</text><g class="message" data-participant-1="OS" data-participant-2="WorkManager"><polygon fill="#181818" points="1072.707,592.9688,1052.707,600.9688,1072.707,608.9688,1064.707,600.9688" style="stroke:#181818;stroke-width:2;"/><line style="stroke:#181818;stroke-width:2;" x1="1060.707" x2="1458.1211" y1="600.9688" y2="600.9688"/><text fill="#000000" font-family="sans-serif" font-size="26" lengthAdjust="spacing" textLength="371.4141" x="1084.707" y="591.4844">D&#233;clenche la t&#226;che en attente</text></g><g class="message" data-participant-1="WorkManager" data-participant-2="Worker"><polygon fill="#181818" points="1639.0098,651.5898,1659.0098,659.5898,1639.0098,667.5898,1647.0098,659.5898" style="stroke:#181818;stroke-width:2;"/><line style="stroke:#181818;stroke-width:2;" x1="1050.707" x2="1651.0098" y1="659.5898" y2="659.5898"/><text fill="#000000" font-family="sans-serif" font-size="26" lengthAdjust="spacing" textLength="482.3457" x="1064.707" y="650.1055">Cr&#233;e une instance de MySimpleWorker</text></g><g class="message" data-participant-1="WorkManager" data-participant-2="Worker"><polygon fill="#181818" points="1629.0098,710.2109,1649.0098,718.2109,1629.0098,726.2109,1637.0098,718.2109" style="stroke:#181818;stroke-width:2;"/><line style="stroke:#181818;stroke-width:2;" x1="1050.707" x2="1641.0098" y1="718.2109" y2="718.2109"/><text fill="#000000" font-family="sans-serif" font-size="26" lengthAdjust="spacing" textLength="500.208" x="1064.707" y="708.7266">Appelle doWork() sur un thread de fond</text></g><g class="message" data-participant-1="Worker" data-participant-2="Worker"><line style="stroke:#181818;stroke-width:2;" x1="1673.0098" x2="1757.0098" y1="776.832" y2="776.832"/><line style="stroke:#181818;stroke-width:2;" x1="1757.0098" x2="1757.0098" y1="776.832" y2="802.832"/><line style="stroke:#181818;stroke-width:2;" x1="1675.0098" x2="1757.0098" y1="802.832" y2="802.832"/><polygon fill="#181818" points="1695.0098,794.832,1675.0098,802.832,1695.0098,810.832,1687.0098,802.832" style="stroke:#181818;stroke-width:2;"/><text fill="#000000" font-family="sans-serif" font-size="26" lengthAdjust="spacing" textLength="437.5947" x="1687.0098" y="767.3477">Ex&#233;cute la logique (upload, BDD...)</text></g><g class="message" data-participant-1="Worker" data-participant-2="WorkManager"><polygon fill="#181818" points="1062.707,853.4531,1042.707,861.4531,1062.707,869.4531,1054.707,861.4531" style="stroke:#181818;stroke-width:2;"/><line style="stroke:#181818;stroke-width:2;" x1="1050.707" x2="1661.0098" y1="861.4531" y2="861.4531"/><text fill="#000000" font-family="sans-serif" font-size="26" lengthAdjust="spacing" textLength="321.9531" x="1074.707" y="851.9688">Retourne Result.success()</text></g><!--SRC=[TPB1Rjim38RlVWeYbzh0vWVeOK2NjC20jXdi3hli8aXi8aocN8aAcjVPQNaElzWefqcSTBq9XFwF_7-IBJk4EvTUmI1yTuhiizMAhISmLuaGdeO_UesWDgZXfm-_7nIf5OQYK9fzW1zHthqARBNj5J7S1RNgaFYiE1LEwxCRCi5R0-qsCdOpK16MxJjfRfSRmUSlHpvSmzpPbuGGKu1PkoMz3fwiV9lbsUn6CPwcAOuwOKp6oPWmx12orrnlK9YHeVU2VTYsjkiTlWtnCQD64bd2CkpbLK5UsWUxMlCrt2lWVOoPt2bBZ9JDzVl0fN_zYuxq7XE3ziIMaj2ZWet5kZ3u7rjrNGibHM0L39Iop2XH3dyxX66tKKxoSHX7MXZxnWf4KnHNC5yspUtywTloKGpSJuI7fUHX1MY6dNOeyM8AnR9zRtvn_03kv9H0iTXaF6tZx7wcZ3VanJeiHLQaCP_cnIO-4j_qFReyiy-biXgF8n7mEg0o6VJioPnFT1Zc0dNxAhOIZvwSNusdLgRUUMK-mTV5GbAiBdIdI1fakH_nq61CZkkOjCOOosgwnKFpYz8XeNy0]--></g></svg>