<svg xmlns="http://www.w3.org/2000/svg" xmlns:xlink="http://www.w3.org/1999/xlink" contentStyleType="text/css" data-diagram-type="DESCRIPTION" height="1082px" preserveAspectRatio="none" style="width:2006px;height:1082px;background:#FFFFFF;" version="1.1" viewBox="0 0 2006 1082" width="2006px" zoomAndPan="magnify"><title>Diagramme de l'architecture MVVM</title><defs/><g><g class="title" data-source-line="1"><text fill="#000000" font-family="sans-serif" font-size="28" font-weight="bold" lengthAdjust="spacing" textLength="507.8828" x="735.0586" y="47.0703">Diagramme de l'architecture MVVM</text></g><!--cluster View (Fragment/Activity)--><g class="cluster" data-entity="View .Fragment.Activity." data-source-line="3" data-uid="ent0002" id="cluster_View .Fragment.Activity."><path d="M17,628.9366 L380.4434,628.9366 A7.5,7.5 0 0 1 385.4434,633.9366 L399.4434,673.9131 L399,673.9131 A5,5 0 0 1 404,678.9131 L404,856.9166 A5,5 0 0 1 399,861.9166 L17,861.9166 A5,5 0 0 1 12,856.9166 L12,633.9366 A5,5 0 0 1 17,628.9366" fill="none" style="stroke:#000000;stroke-width:3;"/><line style="stroke:#000000;stroke-width:3;" x1="12" x2="399.4434" y1="673.9131" y2="673.9131"/><text fill="#000000" font-family="sans-serif" font-size="28" font-weight="bold" lengthAdjust="spacing" textLength="361.4434" x="20" y="660.0069">View (Fragment/Activity)</text></g><!--cluster ViewModel Layer--><g class="cluster" data-entity="ViewModel Layer" data-source-line="7" data-uid="ent0004" id="cluster_ViewModel Layer"><path d="M1445,628.9366 L1691.0293,628.9366 A7.5,7.5 0 0 1 1696.0293,633.9366 L1710.0293,673.9131 L1987,673.9131 A5,5 0 0 1 1992,678.9131 L1992,1064.1566 A5,5 0 0 1 1987,1069.1566 L1445,1069.1566 A5,5 0 0 1 1440,1064.1566 L1440,633.9366 A5,5 0 0 1 1445,628.9366" fill="none" style="stroke:#000000;stroke-width:3;"/><line style="stroke:#000000;stroke-width:3;" x1="1440" x2="1710.0293" y1="673.9131" y2="673.9131"/><text fill="#000000" font-family="sans-serif" font-size="28" font-weight="bold" lengthAdjust="spacing" textLength="244.0293" x="1448" y="660.0069">ViewModel Layer</text></g><!--cluster Model Layer--><g class="cluster" data-entity="Model Layer" data-source-line="12" data-uid="ent0009" id="cluster_Model Layer"><path d="M789,86.9766 L965.7949,86.9766 A7.5,7.5 0 0 1 970.7949,91.9766 L984.7949,131.9531 L1387,131.9531 A5,5 0 0 1 1392,136.9531 L1392,835.7366 A5,5 0 0 1 1387,840.7366 L789,840.7366 A5,5 0 0 1 784,835.7366 L784,91.9766 A5,5 0 0 1 789,86.9766" fill="none" style="stroke:#000000;stroke-width:3;"/><line style="stroke:#000000;stroke-width:3;" x1="784" x2="984.7949" y1="131.9531" y2="131.9531"/><text fill="#000000" font-family="sans-serif" font-size="28" font-weight="bold" lengthAdjust="spacing" textLength="174.7949" x="792" y="118.0469">Model Layer</text></g><!--entity UI_Component--><g class="entity" data-entity="UI_Component" data-source-line="4" data-uid="ent0003" id="entity_UI_Component"><rect fill="#F1F1F1" height="92.9766" rx="5" ry="5" style="stroke:#181818;stroke-width:1;" width="107.4668" x="154.26" y="736.9366"/><rect fill="#F1F1F1" height="20" style="stroke:#181818;stroke-width:1;" width="30" x="221.7268" y="746.9366"/><rect fill="#F1F1F1" height="4" style="stroke:#181818;stroke-width:1;" width="8" x="217.7268" y="750.9366"/><rect fill="#F1F1F1" height="4" style="stroke:#181818;stroke-width:1;" width="8" x="217.7268" y="758.9366"/><text fill="#000000" font-family="sans-serif" font-size="28" lengthAdjust="spacing" textLength="27.4668" x="184.26" y="804.0069">UI</text></g><!--entity VM--><g class="entity" data-entity="VM" data-source-line="8" data-uid="ent0005" id="entity_VM"><rect fill="#F1F1F1" height="92.9766" rx="5" ry="5" style="stroke:#181818;stroke-width:1;" width="226.207" x="1472.9" y="736.9366"/><rect fill="#F1F1F1" height="20" style="stroke:#181818;stroke-width:1;" width="30" x="1659.107" y="746.9366"/><rect fill="#F1F1F1" height="4" style="stroke:#181818;stroke-width:1;" width="8" x="1655.107" y="750.9366"/><rect fill="#F1F1F1" height="4" style="stroke:#181818;stroke-width:1;" width="8" x="1655.107" y="758.9366"/><text fill="#000000" font-family="sans-serif" font-size="28" lengthAdjust="spacing" textLength="146.207" x="1502.9" y="804.0069">ViewModel</text></g><g class="entity" data-entity="GMN6" data-source-line="9" data-uid="ent0007" id="entity_GMN6"><path d="M1471.84,955.9166 L1471.84,1037.1588 A0,0 0 0 0 1471.84,1037.1588 L1960.1437,1037.1588 A0,0 0 0 0 1960.1437,1037.1588 L1960.1437,975.9166 L1940.1437,955.9166 L1699.78,955.9166 L1614.2,830.7966 L1683.78,955.9166 L1471.84,955.9166 A0,0 0 0 0 1471.84,955.9166" fill="#FEFFDD" style="stroke:#181818;stroke-width:1;"/><path d="M1940.1437,955.9166 L1940.1437,975.9166 L1960.1437,975.9166 L1940.1437,955.9166" fill="#FEFFDD" style="stroke:#181818;stroke-width:1;"/><text fill="#000000" font-family="sans-serif" font-size="26" lengthAdjust="spacing" textLength="446.3037" x="1483.84" y="991.0533">Contient la logique de pr&#233;sentation</text><text fill="#000000" font-family="sans-serif" font-size="26" lengthAdjust="spacing" textLength="188.7031" x="1483.84" y="1021.6744">et l'&#233;tat de l'UI.</text></g><!--entity Repo--><g class="entity" data-entity="Repo" data-source-line="13" data-uid="ent0010" id="entity_Repo"><rect fill="#F1F1F1" height="92.9766" rx="5" ry="5" style="stroke:#181818;stroke-width:1;" width="224.252" x="1085.88" y="409.9566"/><rect fill="#F1F1F1" height="20" style="stroke:#181818;stroke-width:1;" width="30" x="1270.132" y="419.9566"/><rect fill="#F1F1F1" height="4" style="stroke:#181818;stroke-width:1;" width="8" x="1266.132" y="423.9566"/><rect fill="#F1F1F1" height="4" style="stroke:#181818;stroke-width:1;" width="8" x="1266.132" y="431.9566"/><text fill="#000000" font-family="sans-serif" font-size="28" lengthAdjust="spacing" textLength="144.252" x="1115.88" y="477.0269">Repository</text></g><!--entity Room (DB)--><g class="entity" data-entity="Room .DB." data-source-line="14" data-uid="ent0011" id="entity_Room .DB."><rect fill="#F1F1F1" height="92.9766" rx="5" ry="5" style="stroke:#181818;stroke-width:1;" width="222.3926" x="816.8" y="194.9766"/><rect fill="#F1F1F1" height="20" style="stroke:#181818;stroke-width:1;" width="30" x="999.1926" y="204.9766"/><rect fill="#F1F1F1" height="4" style="stroke:#181818;stroke-width:1;" width="8" x="995.1926" y="208.9766"/><rect fill="#F1F1F1" height="4" style="stroke:#181818;stroke-width:1;" width="8" x="995.1926" y="216.9766"/><text fill="#000000" font-family="sans-serif" font-size="28" lengthAdjust="spacing" textLength="142.3926" x="846.8" y="262.0469">Room (DB)</text></g><!--entity Retrofit (API)--><g class="entity" data-entity="Retrofit .API." data-source-line="15" data-uid="ent0013" id="entity_Retrofit .API."><rect fill="#F1F1F1" height="92.9766" rx="5" ry="5" style="stroke:#181818;stroke-width:1;" width="251.2266" x="1108.38" y="194.9766"/><rect fill="#F1F1F1" height="20" style="stroke:#181818;stroke-width:1;" width="30" x="1319.6066" y="204.9766"/><rect fill="#F1F1F1" height="4" style="stroke:#181818;stroke-width:1;" width="8" x="1315.6066" y="208.9766"/><rect fill="#F1F1F1" height="4" style="stroke:#181818;stroke-width:1;" width="8" x="1315.6066" y="216.9766"/><text fill="#000000" font-family="sans-serif" font-size="28" lengthAdjust="spacing" textLength="171.2266" x="1138.38" y="262.0469">Retrofit (API)</text></g><g class="entity" data-entity="GMN15" data-source-line="16" data-uid="ent0016" id="entity_GMN15"><path d="M906.12,758.1166 L906.12,808.7377 L1325.8944,808.7377 L1325.8944,778.1166 L1305.8944,758.1166 L906.12,758.1166" fill="#FEFFDD" style="stroke:#181818;stroke-width:1;"/><path d="M1305.8944,758.1166 L1305.8944,778.1166 L1325.8944,778.1166 L1305.8944,758.1166" fill="#FEFFDD" style="stroke:#181818;stroke-width:2;"/><text fill="#000000" font-family="sans-serif" font-size="26" lengthAdjust="spacing" textLength="377.7744" x="918.12" y="793.2533">Source de v&#233;rit&#233; des donn&#233;es.</text></g><!--link Room (DB) to Repo--><g class="link" data-entity-1="Room .DB." data-entity-2="Repo" data-source-line="14" data-uid="lnk12" id="link_Room .DB._Repo"><path d="M985.92,288.7366 C1031.48,324.3366 1094.64,373.6966 1140.18,409.2566" fill="none" id="Room (DB)-Repo" style="stroke:#181818;stroke-width:2;"/></g><!--link Retrofit (API) to Repo--><g class="link" data-entity-1="Retrofit .API." data-entity-2="Repo" data-source-line="15" data-uid="lnk14" id="link_Retrofit .API._Repo"><path d="M1226.28,288.7366 C1220.2,324.3366 1211.78,373.6966 1205.72,409.2566" fill="none" id="Retrofit (API)-Repo" style="stroke:#181818;stroke-width:2;"/></g><!--link Repo to GMN15--><g class="link" data-entity-1="Repo" data-entity-2="GMN15" data-source-line="16" data-uid="lnk17" id="link_Repo_GMN15"><path d="M1158.58,503.7766 C1145.8,521.1366 1133.1,541.8566 1126,562.9366 C1103.24,630.5966 1108.52,716.7166 1112.92,757.6966" fill="none" id="Repo-GMN15" style="stroke:#181818;stroke-width:2;stroke-dasharray:14,14;"/></g><!--link UI_Component to VM--><g class="link" data-entity-1="UI_Component" data-entity-2="VM" data-source-line="20" data-uid="lnk18" id="link_UI_Component_VM"><path d="M208.22,736.3566 C211.22,695.4566 222.8,638.3966 262,609.5166 C292.5,587.0566 1193.02,537.4966 1392,612.9366 C1456.98,637.5766 1506.6273,685.7341 1541.8073,727.1141" fill="none" id="UI_Component-to-VM" style="stroke:#181818;stroke-width:2;"/><polygon fill="#181818" points="1549.58,736.2566,1544.016,717.361,1543.1028,728.6378,1531.826,727.7246,1549.58,736.2566" style="stroke:#181818;stroke-width:2;"/><text fill="#000000" font-family="sans-serif" font-size="26" lengthAdjust="spacing" textLength="252.9668" x="264" y="590.0733">L'utilisateur a cliqu&#233;</text></g><!--link VM to UI_Component--><g class="link" data-entity-1="VM" data-entity-2="UI_Component" data-source-line="21" data-uid="lnk19" id="link_VM_UI_Component"><path d="M1549.58,736.2766 C1514.38,694.9166 1456.96,637.6166 1392,612.9366 C1253.1,560.1566 604.18,590.1566 528,609.5166 C426.88,635.2166 332.9981,693.1369 272.0381,735.9769" fill="none" id="VM-to-UI_Component" style="stroke:#181818;stroke-width:2;"/><polygon fill="#181818" points="262.22,742.8766,281.5469,739.0724,270.4017,737.1268,272.3473,725.9816,262.22,742.8766" style="stroke:#181818;stroke-width:2;"/><text fill="#000000" font-family="sans-serif" font-size="26" lengthAdjust="spacing" textLength="221.8887" x="530" y="590.0733">via LiveData/Flow</text><text fill="#000000" font-family="sans-serif" font-size="26" lengthAdjust="spacing" textLength="219.1973" x="1294.4686" y="715.5674">Affiche cette liste</text></g><!--link VM to Repo--><g class="link" data-entity-1="VM" data-entity-2="Repo" data-source-line="23" data-uid="lnk20" id="link_VM_Repo"><path d="M1549,735.9366 C1513.42,695.8166 1455.76,639.6966 1392,612.9366 C1350.88,595.6766 1222.24,629.6966 1192,596.9366 C1169.3,572.3566 1169.9009,545.2241 1178.0409,514.9841" fill="none" id="VM-to-Repo" style="stroke:#181818;stroke-width:2;"/><polygon fill="#181818" points="1181.16,503.3966,1168.7563,518.6984,1178.5607,513.0528,1184.2063,522.8573,1181.16,503.3966" style="stroke:#181818;stroke-width:2;"/><text fill="#000000" font-family="sans-serif" font-size="26" lengthAdjust="spacing" textLength="336.9717" x="1194" y="590.0733">Donne-moi les utilisateurs</text></g><!--link Repo to VM--><g class="link" data-entity-1="Repo" data-entity-2="VM" data-source-line="24" data-uid="lnk21" id="link_Repo_VM"><path d="M1310.52,464.0766 C1385.94,473.9366 1481.76,499.2566 1540,562.9366 C1583.16,610.1366 1589.9817,675.2579 1589.2417,724.1179" fill="none" id="Repo-to-VM" style="stroke:#181818;stroke-width:2;"/><polygon fill="#181818" points="1589.06,736.1166,1597.3317,718.2398,1589.2114,726.1177,1581.3335,717.9975,1589.06,736.1166" style="stroke:#181818;stroke-width:2;"/><text fill="#000000" font-family="sans-serif" font-size="26" lengthAdjust="spacing" textLength="305.9824" x="1562.5" y="590.0733">Retourne les utilisateurs</text></g><!--SRC=[PL11QXj14BpFAvgzI89iVDV1e5WO11AO1EdYcD0PjUGcizFoJA-CC7xGlcC_bjw9abZsRRgwQggwb3KGp1dt2Pk6O4iGHfZy8ojvRHF1QhDPENT0_mlt1DM6wHd6jmdt3KMzcddb8-jfKi6B0xXVBnu0CwmNFswaEKWqZdjz9r_9bW8iyKJfhFg75h7v0KHHWf-YAWt8ph0ft4XKjWyX80JPyrDRyXvItsM3KLdYzqYs7_MTZN-EMIy-NoJuwFwL3f9P9PsA_J0MMCnwFFyoUO2w_e-I9jcnmdXsjxXOlKiye5Fu9cto9UQnxn9htzaxmrPYx3lA9Th8kA6aps1tMEV1A5vQ_qZvaq7GAWVEE9nk6moCsRsj6EfhQmYcK2r7PwvIcm311wkfxofdQoDTY8m-s-tONC2JMdZJALKmFZB2aeyqHyMhso3F4tVM3qSDkhdbfxeHBe7UMERA5KxzDv7rPHL4-a1qplq6]--></g></svg>